# xmcd
#
# Track frame offsets: 
#        150
#        16925
#        34197
#        50130
#        62002
#        75107
#        94725
#        108355
#        122727
#        132595
#        143192
#        159585
#        171082
#        187975
#        201135
#        211932
#
# Disc length: 3139 seconds
#
# Revision: 18
# Processed by: cddbd v1.5.2PL0 Copyright (c) Steve Scherf et al.
# Submitted via: ExactAudioCopy v0.99pb3
#
DISCID=d80c4110
DTITLE=Johnny Cash - unearthed  [2 Trouble in Mind]
DYEAR=2003
DGENRE=Country
TTITLE0=Pocahontas
TTITLE1=I'm a Drifter [version one]
TTITLE2=Trouble in Mind
TTITLE3=Down the Line
TTITLE4=I'm Movin' On
TTITLE5=As Long As the Grass Shall Grow
TTITLE6=Heart of Gold
TTITLE7=The Running Kind [w. Tom Petty]
TTITLE8=Everybody's Trying To Be My Baby
TTITLE9=Brown-Eyed Handsome Man [w. Carl Perkins]
TTITLE10="T" For Texas
TTITLE11=Devil's Right Hand
TTITLE12=I'm A Drifter [version two]
TTITLE13=Like A Soldier [w. Willie Nelson]
TTITLE14=Drive On [Alternate Lyrics]
TTITLE15=Bird On a Wire
EXTD=YEAR: 2003
EXTT0=
EXTT1=
EXTT2=
EXTT3=
EXTT4=
EXTT5=
EXTT6=
EXTT7=
EXTT8=
EXTT9=
EXTT10=
EXTT11=
EXTT12=
EXTT13=
EXTT14=
EXTT15=
PLAYORDER=
